<svg xmlns="http://www.w3.org/2000/svg" width="933.333" height="933.333" version="1.0" viewBox="0 0 700 700">
  <g stroke="none">
    <path d="M225.5 63.8c-.3.3-.5 129.3-.5 286.7v286.1l80.3-.2c44.1-.1 81.1-.4 82.3-.7s4.4-.8 7.2-1.2c4.1-.5 14.1-2.7 22.2-4.9 4.2-1.2 10.7-3.9 17.1-7.1 27.9-14 45.2-38.5 51.5-73.3.9-4.8 1.7-15.9 1.9-24.7.6-24.2-2.2-39-10.9-56.4-7.3-14.7-22.9-29.1-36.1-33.1-7-2.2-8.3-2.9-8.1-4.2.4-3 1.7-3.4 11.6-3.2l10.1.1 4.8-3.8c12.4-9.9 23.6-30.2 26.7-48.4.4-2.2.9-4.9 1.1-6 .3-1.1.6-8.5.8-16.5.7-30.6-6.6-53.8-22.4-71.4-7-7.7-19.3-15.4-28.3-17.6-3.7-1-4.5-1.6-4.4-3.3.1-2.1.6-2.2 11.5-2.5l11.5-.3 8.1-8.2c16.2-16.5 23.5-37 24-67.2.2-14.2-.1-20-2-32.4-2.1-13.5-9.3-32.1-16.6-42.8-16.3-23.8-44.3-38.5-81.5-42.9-6-.7-161.2-1.2-161.9-.6zm150 76.2c20 6.5 30.9 24 30.6 49.3-.3 24.9-14.9 43.8-36 46.5-3.1.4-18.4.7-34.1.7l-28.5-.1-.3-47.9c-.1-26.4 0-48.5.2-49 .6-1.6 63.2-1.1 68.1.5zm-1 162.6c7.5 1.9 13.3 5.3 18.6 10.7 4.6 4.7 10.7 16.7 11.4 22.2.3 2.1.8 4.1 1.1 4.6.7 1.1.6 16.5-.1 20.4-3.8 20.4-16 34.2-33.4 37.5-2.9.5-18.8 1-35.2 1H307v-98h30.8c24.6 0 32 .3 36.7 1.6zm6.5 165c16.2 7.7 25.4 24.7 24.9 46.3-.5 24.5-12.4 42-31.8 46.5-4.2 1-14.3 1.3-36.4 1.3H307v-97.8l33.8.3 33.7.3 6.5 3.1zM526 63.8c-16.9 2.5-30.5 13.6-35.9 29.3-3 8.8-2.3 20.4 1.7 29.2 5.2 11.5 16.6 20.9 29.2 24.4 4.1 1.1 17.2 1.1 21.6-.1 20.2-5.4 33.9-23.3 32.7-43.1-1-17.8-13.3-33-30.6-38-5.8-1.7-14-2.4-18.7-1.7zm17.5 8.9c20.4 6.5 30.5 29.6 21.1 48.1-5.7 11.1-18.2 19.2-30.4 19.7-11.6.5-20.7-3.1-28.8-11.1-18.5-18.6-9.8-49.5 16.1-57.2 7.8-2.3 13.8-2.1 22 .5z"/>
    <path d="M514 104.6v24.5l4.3-.3 4.2-.3-.1-8.8V111h3.1c2.8 0 3.8 1 9.6 9l6.4 9h4.8c2.6 0 4.7-.3 4.7-.7 0-.3-3.2-4.9-7.1-10-3.9-5.2-6.9-9.5-6.7-9.6 6.3-3.2 8.3-6.6 8.3-14 0-11.3-5-14.7-21.5-14.7h-10v24.6zm21.5-14c4.1 5.4-.2 11.6-8.2 11.8l-4.8.1-.1-7.4v-7.3l5.8.4c4.2.3 6.2 1 7.3 2.4z"/>
  </g>
</svg>
