<svg xmlns="http://www.w3.org/2000/svg" width="353" height="291" fill="none" viewBox="0 0 353 291">
  <path fill="#FF1D6F" d="M166.863 32.278c12.092 12.977 7.315 13.723 19.407.26C206.207 10.646 235.696-2.515 265.434.403c17.062 2.096 34.546 6.926 51.058 19.406 31.207 23.566 36.113 67.209 36.48 76.09 1.297 54.881-43.364 100.652-80.979 134.98-11.141 10.146-23.2 19.298-35.497 28.008-12.665 8.817-25.199 17.893-38.318 26.008-7.197 4.646-15.128 6.072-23.124 6.105-11.876.043-22.055-6.559-22.131-6.505-29.608-21.621-60.297-42.011-86.933-67.338-15.982-15.149-29.24-32.87-42.532-50.342-34.082-45.058-32.32-111.457 13.82-147.59C76.32-11.634 133.992-3.767 166.853 32.3l.011-.022Z"/>
</svg>
