<svg width="25" height="25" viewBox="0 0 25 25" fill="none" xmlns="http://www.w3.org/2000/svg">
<path d="M17.5 18.585V6.085C19.0312 7.46 20 10.1213 20 12.335C20 14.5487 19.0312 17.21 17.5 18.585Z" fill="#13B5CC"/>
<path d="M5.87125 18.585H2.5C1.12125 18.585 0 17.4638 0 16.085V8.585C0 7.20625 1.12125 6.085 2.5 6.085H5.87125L15 0V24.67L5.87125 18.585Z" fill="#13B5CC"/>
<path d="M24.9988 12.335C24.9988 17.4487 21.9088 21.6512 17.5 23.585V21.085C20.4838 19.3525 22.4988 16.0262 22.4988 12.335C22.4988 8.64371 20.4838 5.31746 17.5 3.58496V1.08496C21.9088 3.01871 24.9988 7.22121 24.9988 12.335Z" fill="#13B5CC"/>
</svg>
