<svg xmlns="http://www.w3.org/2000/svg" id="Layer_5" data-name="Layer 5" viewBox="0 0 187.63 214.13">
  <defs>
    <style>
      @keyframes block{0%{opacity:0}50%{opacity:1}}.cls-1{fill:#fff}
    </style>
  </defs>
  <path id="ribbon" d="M159.35 11.64c-7.7-11.96-19.59-14.43-32.33-8.68-14.34 6.47-24.99 16.96-33.21 29.84C85.59 19.92 74.94 9.43 60.6 2.96 47.86-2.78 35.97-.32 28.27 11.64c-7.93 12.32-5.83 24.98 5.68 34.13 5.88 4.67 12.63 7.56 18.92 9.66 7.54 2.38 14.49 3.77 21.58 4.35 6.2.51 32.51.51 38.71 0 7.09-.58 14.04-1.97 21.58-4.35 6.29-2.11 13.05-4.99 18.92-9.66 11.51-9.15 13.61-21.81 5.68-34.13ZM82.9 44.91c-.4.7-1.15.26-1.74.24-7.76-.18-15.21-2.1-22.85-4.24-5.83-2.14-11.78-4.46-16.98-8.48-7.17-5.54-4.14-11.57.99-16.45 2.69-2.56 6.18-.85 9.17.25 9.52 3.49 16.71 10.16 23.38 17.5 2.71 2.99 5.32 6.07 7.48 9.49.31.5.93 1.03.55 1.68Zm63.27-12.49c-5.16 3.99-11.08 6.3-16.87 8.42-7.58 2.12-14.98 4.02-22.69 4.21-.58.01-1.32.45-1.72-.24-.38-.65.23-1.17.54-1.67 2.14-3.4 4.74-6.45 7.43-9.42 6.62-7.29 13.76-13.91 23.22-17.38 2.97-1.09 6.44-2.79 9.11-.24 5.09 4.85 8.1 10.83.98 16.34Z" class="cls-1"/>
  <path d="M45.71 70.28h35.82c3.91 0 4.64.74 4.64 4.67 0 12.7-.01 25.41-.02 38.11 0 3.22-.69 3.97-3.87 3.97-24.07.02-48.15.04-72.22 0-6.41 0-10.06-3.79-10.06-10.25V80.1c0-6.04 3.76-9.8 9.88-9.82 11.94-.03 23.88 0 35.82-.01Z" class="cls-1" style="animation:block 2s linear forwards infinite;animation-delay:-4s"/>
  <path d="M141.86 70.28h35.25c6.94 0 10.51 3.57 10.51 10.54v26.11c0 6.3-3.71 10.06-10.03 10.12-4.64.05-9.27.03-13.91.02-19.06 0-38.11-.02-57.17-.03-.57 0-1.14 0-1.71-.05-2.59-.22-3.33-1-3.33-3.59-.01-7.11 0-14.23 0-21.34V74.15c0-3 .84-3.86 3.8-3.86 12.2-.01 24.39 0 36.59 0Z" class="cls-1" style="animation:block 2s linear forwards infinite;animation-delay:-3.5s"/>
  <path d="M17.53 214.13c-3.58-1.32-6.24-3.52-7.03-7.47-.14-.68-.19-1.38-.19-2.07-.01-22.55-.02-45.11 0-67.66 0-5.63 3.9-9.67 9.54-9.68 20.78-.05 41.55-.02 62.33 0 2.91 0 3.99 1.14 3.99 4.1 0 26.49 0 52.99.03 79.48 0 1.3-.41 2.33-1.15 3.31H17.53Z" class="cls-1" style="animation:block 2s linear forwards infinite;animation-delay:-2.5s"/>
  <path d="M102.58 214.13c-.91-1.06-1.14-2.28-1.14-3.67.03-26.17.02-52.35.02-78.52 0-3.78.93-4.7 4.74-4.7h60.99c6.24 0 10.1 3.85 10.11 10.07 0 21.73-.1 43.46.07 65.18.05 5.69-1.77 9.69-7.29 11.64h-67.5Z" class="cls-1" style="animation:block 2s linear forwards infinite;animation-delay:-3s"/>
</svg>
