<svg xmlns="http://www.w3.org/2000/svg" width="14" height="15" fill="none" viewBox="0 0 14 15">
  <path fill="#fff" d="M4.01 3.178 1.194.122l-.99 1.075 12.6 13.68.99-1.074-1.413-1.535C13.43 10.94 14.005 9.248 14 7.5c0-3.11-1.73-5.665-4.2-6.84v1.52c1.671 1.053 2.8 3.076 2.8 5.32a6.53 6.53 0 0 1-1.17 3.735l-.9-.978A6.37 6.37 0 0 0 11.2 7.5c0-1.346-.542-2.964-1.4-3.8v5.765l-1.4-1.52V0L4.01 3.178ZM1.4 11.3h1.888L8.4 15v-2.848L.771 3.87a1.446 1.446 0 0 0-.561.557A1.614 1.614 0 0 0 0 5.22v4.56c0 .838.628 1.52 1.4 1.52Z"/>
</svg>
