<svg xmlns="http://www.w3.org/2000/svg" width="180" height="58" fill="none" viewBox="0 0 180 58">
  <path fill="#fff" d="M65.28 32.759c.717-.407 1.772-.891 3.167-1.453 1.55-.62 2.808-1.191 3.777-1.714 1.026-.581 1.85-1.298 2.47-2.15.677-.91 1.016-2.005 1.016-3.283 0-1.917-.794-3.418-2.382-4.503C71.758 18.552 69.589 18 66.82 18c-3.002 0-5.346.64-7.03 1.918-1.667 1.258-2.5 3.03-2.5 5.316h5.724c0-.755.32-1.336.959-1.743.639-.426 1.53-.64 2.672-.64 1.046 0 1.87.146 2.47.437.62.27.93.648.93 1.133 0 .91-.688 1.714-2.063 2.411-.6.31-1.433.697-2.499 1.162-1.665.736-3.07 1.433-4.212 2.092-1.085.62-2.053 1.491-2.906 2.615-.813 1.084-1.268 2.44-1.365 4.067v1.83h18.07v-4.474H63.596c.407-.503.968-.959 1.685-1.365Z"/>
  <path fill="#fff" fill-rule="evenodd" d="M99.007 33.02c0 1.898-.6 3.302-1.802 4.213-1.181.91-3.002 1.365-5.462 1.365h-12.87V18.261h12.87c4.765 0 7.147 1.772 7.147 5.317 0 2.266-1.075 3.796-3.225 4.59v.116c2.228.833 3.341 2.412 3.341 4.736Zm-7.845-10.227h-6.595v3.487h6.334c.697 0 1.25-.155 1.656-.465.407-.31.61-.726.61-1.25 0-1.18-.668-1.772-2.005-1.772Zm2.15 9.53c0-.659-.222-1.172-.668-1.54-.426-.368-1.007-.552-1.743-.552h-6.363v3.864h6.624c1.434 0 2.15-.59 2.15-1.772Zm30.179 1.975v4.474c-.659.04-1.327.059-2.005.059-1.84 0-3.254-.436-4.241-1.308-.988-.89-1.608-2.227-1.86-4.01-.232-1.064-.474-1.684-.726-1.858-.233-.194-.988-.31-2.266-.35h-4.503v7.293h-5.695V18.261h12.9c2.653 0 4.687.552 6.101 1.656 1.414 1.104 2.121 2.75 2.121 4.94 0 2.614-1.25 4.347-3.748 5.2v.145c.736.503 1.172 1.191 1.307 2.063.194 1.355 1.065 2.033 2.615 2.033ZM107.89 22.735v4.155h7.205c.794 0 1.414-.175 1.859-.523.446-.368.668-.881.668-1.54 0-.658-.222-1.172-.668-1.54-.445-.368-1.065-.552-1.859-.552h-7.205Z" clip-rule="evenodd"/>
</svg>
