<svg xmlns="http://www.w3.org/2000/svg" width="180" height="58" fill="none" viewBox="0 0 180 58">
  <path fill="#fff" fill-rule="evenodd" d="M91.452 29.323c0 6.637-4.81 11.8-11.16 11.8-6.262 0-11.162-5.163-11.162-11.8v-6.085c0-8.388 2.632-12.905 10.98-15.118L87.913 6v3.872l-7.622 2.12c-5.626 1.475-7.259 4.333-7.44 9.31a10.321 10.321 0 0 1 3.538-2.765c1.362-.645 2.904-.922 4.356-.922 6.624 0 10.707 4.978 10.707 11.708Zm-18.51 0c0 4.701 3.085 7.928 7.35 7.928 4.264 0 7.349-3.227 7.349-7.928 0-4.702-2.995-8.02-7.26-8.02-4.355.092-7.44 3.41-7.44 8.02ZM56.79 18.168a7.968 7.968 0 0 1 3.267 2.213v-2.397h3.63v22.585h-3.54v-2.397c-.907.922-2.087 1.66-3.357 2.213-1.27.46-2.54.737-3.901.645-6.08 0-10.889-5.07-10.889-11.8 0-6.729 4.81-11.8 10.889-11.8 1.36 0 2.63.185 3.901.738ZM45.72 29.323c0 4.701 3.085 8.02 7.35 8.02s7.35-3.319 7.35-8.02c0-4.702-3.085-8.02-7.35-8.02-4.265-.093-7.35 3.226-7.35 8.02Zm57.891-1.014 9.436-10.325h-4.809l-8.801 9.68v-9.68h-3.72v22.585h3.72V29.046l9.255 11.523h4.809l-9.89-12.26Zm19.599-10.14c1.27-.462 2.54-.738 3.902-.738 6.079 0 10.888 4.978 10.888 11.8 0 6.821-4.809 11.8-10.888 11.8-2.632.091-5.172-.923-7.078-2.674V52h-3.629V17.984h3.448v2.305c.907-.922 2.087-1.66 3.357-2.12Zm-3.63 11.154c0 4.793 2.995 8.02 7.259 8.02 4.265 0 7.35-3.319 7.35-8.02 0-4.702-3.085-8.02-7.35-8.02-4.174-.093-7.259 3.226-7.259 8.02Z" clip-rule="evenodd"/>
</svg>
