<svg xmlns="http://www.w3.org/2000/svg" width="180" height="58" fill="none" viewBox="0 0 180 58">
  <g fill="#fff" clip-path="url(#a)">
    <path fill-rule="evenodd" d="M37.709 15c4.834 0 9.436 3.756 9.436 10.615v.078c0 6.858-4.525 10.615-9.436 10.615-3.132 0-5.068-1.42-6.46-3.068v8.816h-5.878V15.385h5.879v2.95C32.68 16.42 34.654 15 37.709 15Zm3.549 10.62c0-3.415-2.319-5.675-5.063-5.675-2.742 0-5.022 2.26-5.022 5.674v.08c0 3.41 2.28 5.673 5.022 5.673 2.745 0 5.063-2.225 5.063-5.674v-.078Z" clip-rule="evenodd"/>
    <path d="M95.274 23.16h7.914v-7.77h5.985v20.54h-5.985v-8.802h-7.914v8.802H89.29V15.39h5.985v7.77Zm23.328 6.168h.082l8.382-13.939h6.624V35.93h-5.983V25.84l.158-3.848h-.12l-8.623 13.938h-6.343V15.39h5.984v10.25l-.161 3.688Z"/>
    <path fill-rule="evenodd" d="M86.917 25.617C86.917 19.716 82.16 15 75.74 15c-6.46 0-11.255 4.792-11.255 10.694v.076c0 5.9 4.757 10.614 11.177 10.614 6.46 0 11.255-4.79 11.255-10.69v-.077Zm-11.255-5.595c3.248 0 5.453 2.645 5.453 5.673v.076c0 3.026-2.01 5.596-5.375 5.596-3.248 0-5.453-2.646-5.453-5.672v-.077c0-3.027 2.01-5.596 5.375-5.596Zm104.054-4.632v20.54h-5.88v-2.95c-1.43 1.917-3.4 3.334-6.459 3.334-4.833 0-9.436-3.754-9.436-10.614v-.076c0-6.861 4.526-10.615 9.436-10.615 3.136 0 5.068 1.417 6.461 3.065V15.39h5.878Zm-5.802 10.238c0-3.414-2.282-5.677-5.026-5.677-2.746 0-5.068 2.225-5.068 5.677v.076c0 3.414 2.321 5.677 5.068 5.677 2.744 0 5.026-2.263 5.026-5.677v-.076ZM21.774 35.93V15.39h-5.878v2.684c-1.392-1.648-3.325-3.065-6.46-3.065C4.527 15.009 0 18.763 0 25.624v.076c0 6.86 4.604 10.614 9.436 10.614 3.058 0 5.03-1.417 6.46-3.334v2.95h5.878ZM10.946 19.95c2.744 0 5.027 2.264 5.027 5.678v.076c0 3.414-2.283 5.677-5.027 5.677-2.747 0-5.067-2.263-5.067-5.677v-.076c0-3.452 2.321-5.677 5.067-5.677Z" clip-rule="evenodd"/>
    <path d="M65.106 15.39H46.908v4.981h6.157v15.557h5.88V20.371h6.16V15.39Zm86.226 0h6.625l-7.339 9.715 8.42 10.825h-7.385l-6.234-8.805h-2.132v8.805h-5.983V15.39h5.983v7.77h2.504l5.541-7.77Z"/>
  </g>
  <defs>
    <clipPath id="a">
      <path fill="#fff" d="M0 0h179.716v57.651H0z"/>
    </clipPath>
  </defs>
</svg>
