<svg xmlns="http://www.w3.org/2000/svg" width="180" height="58" fill="none" viewBox="0 0 180 58">
  <path fill="#fff" fill-rule="evenodd" d="M62.904 15.643V7H22v43.214h30.14c7.134 0 12.918-5.804 12.918-12.964S59.274 24.286 52.14 24.286H30.61v-8.643h32.293Zm-6.949 23.61a4.31 4.31 0 0 1-3.815 2.318H30.61V32.93h21.53a4.3 4.3 0 0 1 3.045 1.265 4.329 4.329 0 0 1 .77 5.06Zm-3.814 7.18H25.769v-1.08H52.14c4.45 0 8.073-3.635 8.073-8.103 0-4.467-3.622-8.102-8.073-8.102H25.769V10.782h33.368v1.08H26.844v16.205H52.14c5.044 0 9.149 4.12 9.149 9.183 0 5.064-4.105 9.184-9.15 9.184Z" clip-rule="evenodd"/>
  <path fill="#fff" d="m103.851 50.214 2.207-3.119v3.12h1.309v-5.747h-.981l-2.208 3.12v-3.12h-1.309v5.746h.982Z"/>
  <path fill="#fff" fill-rule="evenodd" d="M120.584 49.312h2.126l.287.902h1.431l-1.947-5.746h-1.668l-1.947 5.746h1.432l.286-.902Zm1.063-3.341.671 2.11h-1.341l.67-2.11Zm-20.238 4.243V48.95h-.612v-4.482h-3.836v2.578c0 .977-.189 1.527-.45 1.904h-.58v1.264h5.478ZM99.487 45.7v3.25H97.9c.206-.369.37-.944.37-1.887V45.7h1.217Z" clip-rule="evenodd"/>
  <path fill="#fff" d="M88.607 50.214V48.95h-2.29v-1.017h2.045v-1.248h-2.045v-.953h2.25v-1.264h-3.558v5.746h3.598Zm27.986-4.482h1.963V44.47h-3.272v5.745h1.309v-4.482Z"/>
  <path fill="#fff" fill-rule="evenodd" d="M81.655 48.409c1.13 0 2.005-.879 2.005-1.97 0-1.092-.876-1.97-2.005-1.97h-2.167v5.745h1.309V48.41h.858Zm0-2.709c.402 0 .696.32.696.739 0 .34-.194.614-.48.706a.697.697 0 0 1-.216.033h-.858V45.7h.858Zm-5.532 4.514c1.169 0 1.963-.713 1.963-1.805s-.794-1.806-1.963-1.806h-.9v-.87h2.372v-1.264h-3.68v5.745h2.208Zm0-2.38c.36 0 .654.156.654.575 0 .419-.295.574-.654.574h-.9v-1.148h.9Z" clip-rule="evenodd"/>
  <path fill="#fff" d="M113.533 50.213v-5.745h-1.307v2.2h-1.8v-2.2h-1.309v5.745h1.309v-2.281h1.8v2.281h1.307Zm-18.933 0v-5.745h-1.308v2.2h-1.8v-2.2h-1.307v5.745h1.307v-2.281h1.8v2.281h1.309Z"/>
  <path fill="#fff" fill-rule="evenodd" d="M143.735 34.32a2.958 2.958 0 0 0-2.977 2.988 2.957 2.957 0 0 0 2.977 2.987 2.957 2.957 0 0 0 2.977-2.987 2.984 2.984 0 0 0-.22-1.148 2.957 2.957 0 0 0-1.613-1.62 2.948 2.948 0 0 0-1.144-.22Zm1.466 2.131c.129.244.202.533.202.857 0 1.026-.735 1.707-1.668 1.707-.932 0-1.668-.681-1.668-1.707 0-1.027.736-1.708 1.668-1.708.639 0 1.186.32 1.466.851Z" clip-rule="evenodd"/>
  <path fill="#fff" d="M76.647 34.32c-1.727 0-2.978 1.297-2.978 2.988 0 1.69 1.25 2.987 2.978 2.987 1.045 0 1.961-.517 2.452-1.33l-1.128-.656c-.246.443-.744.706-1.325.706-1.014 0-1.668-.681-1.668-1.707 0-1.027.654-1.708 1.669-1.708.58 0 1.07.262 1.324.706l1.128-.657a2.763 2.763 0 0 0-1.285-1.096 2.992 2.992 0 0 0-1.167-.234Z"/>
  <path fill="#fff" fill-rule="evenodd" d="M155.412 34.32a2.957 2.957 0 0 0-2.977 2.988c0 .797.295 1.506.781 2.033a2.97 2.97 0 0 0 2.196.954 2.957 2.957 0 0 0 2.977-2.987 2.985 2.985 0 0 0-.865-2.121 2.943 2.943 0 0 0-2.112-.868Zm0 1.28c.932 0 1.668.681 1.668 1.708 0 1.026-.736 1.707-1.668 1.707-.933 0-1.669-.681-1.669-1.707 0-1.027.736-1.708 1.669-1.708Z" clip-rule="evenodd"/>
  <path fill="#fff" d="M131.656 34.32c-1.726 0-2.977 1.297-2.977 2.988 0 1.69 1.251 2.987 2.977 2.987 1.047 0 1.962-.517 2.452-1.33l-1.128-.656c-.246.443-.744.706-1.324.706-1.014 0-1.669-.681-1.669-1.707 0-1.027.655-1.708 1.669-1.708.292 0 .562.066.789.19.225.12.409.295.535.516l1.128-.657a2.748 2.748 0 0 0-1.16-1.04 2.979 2.979 0 0 0-1.292-.29Zm-18.885 5.86 2.208-3.118v3.119h1.309v-5.746h-.981l-2.208 3.12v-3.12h-1.309v5.746h.981Z"/>
  <path fill="#fff" fill-rule="evenodd" d="M87.995 38.374c1.129 0 2.004-.877 2.004-1.97 0-1.09-.875-1.969-2.004-1.969h-2.167v5.746h1.309v-1.806h.858Zm0-2.708c.401 0 .695.32.695.739 0 .27-.122.5-.317.628a.684.684 0 0 1-.378.11h-.858v-1.477h.858Z" clip-rule="evenodd"/>
  <path fill="#fff" d="M127.478 40.18v-1.264h-2.29V37.9h2.044v-1.25h-2.044v-.95h2.25v-1.264h-3.559v5.746h3.599Zm-21.84 0v-1.264h-2.29V37.9h2.045v-1.25h-2.045v-.95h2.249v-1.264h-3.558v5.746h3.599Zm31.149-2.659 1.832 2.66h1.488l-2.012-2.947 1.93-2.799h-1.488l-1.75 2.495v-2.495h-1.308v5.746h1.308v-2.66Zm-14.658 2.659v-5.745h-1.31v2.47a2.202 2.202 0 0 1-.939.19.783.783 0 0 1-.554-.199c-.14-.135-.223-.337-.223-.606v-1.855h-1.309v2.052c0 1.206.916 1.872 2.053 1.872.343 0 .654-.058.972-.181v2.003h1.31Zm27.343-4.482h1.962v-1.264h-3.272v5.746h1.31v-4.482Zm-50.21 0h1.471v-1.264h-4.252v1.264h1.472v4.482h1.309v-4.482Zm-16.212 0h1.472v-1.264H80.27v1.264h1.473v4.482h1.309v-4.482Zm25.472 0h1.963v-1.264h-3.271v5.746h1.308v-4.482Z"/>
  <path fill="#fff" fill-rule="evenodd" d="M92.252 39.277h2.127l.286.903h1.432l-1.947-5.746h-1.669l-1.946 5.746h1.432l.285-.903Zm1.063-3.34.671 2.109h-1.342l.671-2.11Z" clip-rule="evenodd"/>
  <path fill="#fff" d="M85.553 28.702a.783.783 0 0 0-.777.779.784.784 0 0 0 .777.78.785.785 0 0 0 .777-.78.783.783 0 0 0-.777-.78Z"/>
  <path fill="#fff" fill-rule="evenodd" d="M138.511 24.286a2.957 2.957 0 0 0-2.978 2.988 2.957 2.957 0 0 0 2.978 2.987 2.957 2.957 0 0 0 2.976-2.987 2.976 2.976 0 0 0-.864-2.12 2.951 2.951 0 0 0-2.112-.868Zm0 1.28c.932 0 1.668.682 1.668 1.708 0 1.026-.736 1.706-1.668 1.706-.933 0-1.668-.68-1.668-1.706 0-.556.216-1.01.561-1.31a1.672 1.672 0 0 1 1.107-.398Z" clip-rule="evenodd"/>
  <path fill="#fff" d="M120.928 24.286c-1.727 0-2.978 1.297-2.978 2.988 0 1.69 1.251 2.987 2.978 2.987 1.047 0 1.963-.517 2.453-1.33l-1.129-.656c-.245.443-.744.706-1.324.706-.554 0-.999-.203-1.29-.553-.243-.293-.378-.688-.378-1.154 0-1.026.653-1.708 1.668-1.708.58 0 1.071.263 1.324.706l1.129-.656a2.77 2.77 0 0 0-1.306-1.105 2.994 2.994 0 0 0-1.147-.225Zm-39.674 5.975c1.104 0 2.086-.656 2.086-1.92 0-1.264-.9-1.921-1.963-1.921h-.467l.058-.788h2.085V24.4H79.74l-.237 3.3h1.79c.5 0 .737.288.737.64 0 .354-.237.64-.777.64s-.785-.229-.916-.606l-1.129.656c.352.846 1.138 1.231 2.045 1.231Zm34.215-4.596h1.471V24.4h-4.252v1.265h1.472v4.482h1.309v-4.482Zm11.864 0h1.472V24.4h-4.252v1.265h1.471v4.482h1.309v-4.482Zm-28.813 0h1.962V24.4h-3.271v5.747h1.308v-4.482Z"/>
  <path fill="#fff" fill-rule="evenodd" d="M132.515 30.146c1.021 0 1.848-.665 1.848-1.683 0-.582-.279-1.026-.704-1.296.311-.271.499-.649.499-1.125 0-.993-.809-1.642-1.806-1.642h-2.243v5.747h2.406Zm.45-2.103a.59.59 0 0 1 .089.322c0 .32-.212.55-.539.55h-1.096v-1.1h1.096c.201 0 .358.087.45.228Zm-1.546-1.393v-1.018h.933c.301 0 .498.213.498.509 0 .295-.204.509-.498.509h-.933ZM91.81 30.146l.287-.902h2.126l.287.902h1.43L93.994 24.4h-1.668l-1.947 5.747h1.431Zm1.35-4.243.671 2.11H92.49l.671-2.11Zm-17.037 4.243c1.169 0 1.963-.714 1.963-1.805 0-1.093-.794-1.806-1.963-1.806h-.9v-.87h2.372V24.4h-3.68v5.747h2.208Zm0-2.38c.36 0 .654.156.654.575 0 .419-.295.574-.654.574h-.9v-1.148h.9Z" clip-rule="evenodd"/>
  <path fill="#fff" d="M105.386 30.145v-1.263h-2.29v-1.017h2.045v-1.248h-2.045v-.952h2.249V24.4h-3.558v5.745h3.599Zm5.992 0V24.4h-1.308v2.2h-1.799v-2.2h-1.309v5.745h1.309v-2.28h1.799v2.28h1.308Z"/>
</svg>
