<svg xmlns="http://www.w3.org/2000/svg" width="180" height="58" fill="none" viewBox="0 0 180 58">
  <path fill="#fff" fill-rule="evenodd" d="m91.268 30.333-9.345 5.396c-1.173.677-2.639-.17-2.639-1.524V22.356c0-1.354 1.466-2.2 2.639-1.523l9.345 5.395 5.78-3.337c-2.295-5.374-7.713-9.096-13.974-8.882-6.92.236-12.648 5.352-13.876 11.966-1.257-6.78-7.201-11.914-14.344-11.914H42.438v10.553c-1.75-6.094-7.366-10.553-14.022-10.553H16v29.177h12.416c6.656 0 12.272-4.458 14.022-10.552v10.553h12.416c7.147 0 13.093-5.14 14.346-11.924 1.26 6.8 7.221 11.949 14.386 11.949 6.26 0 11.6-3.933 13.69-9.463l-6.008-3.468Zm-29.517-.279-4.896 4.896a2.694 2.694 0 0 1-3.81 0l-4.897-4.896a2.694 2.694 0 0 1 0-3.81l4.896-4.896a2.694 2.694 0 0 1 3.81 0l4.897 4.896a2.694 2.694 0 0 1 0 3.81ZM26.787 35.54l8.214-8.282a3.997 3.997 0 0 0-.024-5.646 3.997 3.997 0 0 0-5.646.023l-8.213 8.282a3.997 3.997 0 0 0 .023 5.646 3.997 3.997 0 0 0 5.646-.023Z" clip-rule="evenodd"/>
  <path fill="#fff" d="M106.827 26.73c.836.301 1.823.454 2.933.454.368 0 .745-.019 1.121-.056.371-.036.737-.084 1.089-.142.352-.059.677-.126.964-.2.294-.076.529-.146.717-.215l.17-.063V19.96h-5.45v2.373h2.714v2.358a7.822 7.822 0 0 1-1.243.102c-1.288 0-2.29-.337-2.979-1-.686-.662-1.037-1.682-1.043-3.031 0-.698.115-1.318.341-1.844a3.84 3.84 0 0 1 .928-1.327 3.943 3.943 0 0 1 1.398-.815 5.434 5.434 0 0 1 1.762-.28c.473 0 .947.038 1.411.114a9.7 9.7 0 0 1 1.388.335l.338.108v-2.419l-.171-.061a7.815 7.815 0 0 0-1.396-.334 11.38 11.38 0 0 0-1.778-.135c-.705 0-1.376.078-1.994.23a7.059 7.059 0 0 0-1.719.663 6.224 6.224 0 0 0-2.445 2.42 6.612 6.612 0 0 0-.65 1.649 7.716 7.716 0 0 0-.22 1.859c0 .913.141 1.76.418 2.519.281.766.71 1.436 1.275 1.991.564.555 1.277.99 2.121 1.295Z"/>
  <path fill="#fff" fill-rule="evenodd" d="M125.874 18.228c0 .901-.255 1.678-.758 2.31-.445.561-1.107.995-1.971 1.293l3.709 5.127h-3.301l-3.294-4.688h-1.127v4.688h-2.736V14.332h3.943c.617 0 1.201.035 1.735.106a6.553 6.553 0 0 1 1.405.326c.758.29 1.352.726 1.766 1.3.417.576.629 1.304.629 2.164Zm-3.021.833a1.7 1.7 0 0 0 .222-.878c0-.28-.058-.53-.172-.741-.107-.198-.299-.359-.57-.48a2.688 2.688 0 0 0-.727-.192 8.495 8.495 0 0 0-1.15-.066h-1.324v3.193h.836c.492 0 .915-.022 1.257-.066.33-.042.611-.106.833-.189.387-.146.655-.342.795-.58Zm16.172-1.039a5.902 5.902 0 0 0-1.203-2.077 5.446 5.446 0 0 0-1.947-1.359c-.761-.32-1.637-.482-2.602-.482-.966 0-1.841.163-2.603.482a5.463 5.463 0 0 0-1.947 1.36 5.895 5.895 0 0 0-1.202 2.076c-.27.793-.408 1.675-.408 2.622 0 .948.138 1.83.408 2.622.272.8.677 1.499 1.202 2.078a5.468 5.468 0 0 0 1.947 1.358c.762.32 1.638.482 2.603.482.965 0 1.84-.162 2.602-.482a5.446 5.446 0 0 0 1.947-1.359 5.897 5.897 0 0 0 1.203-2.076c.27-.793.407-1.675.407-2.623 0-.947-.137-1.829-.407-2.622Zm-5.752 6.77c-.488 0-.942-.085-1.348-.255a2.839 2.839 0 0 1-1.046-.755c-.295-.337-.53-.77-.7-1.286-.171-.524-.258-1.147-.258-1.852 0-.705.087-1.327.258-1.851.17-.517.406-.951.701-1.291.292-.336.643-.59 1.043-.754a3.53 3.53 0 0 1 1.35-.252c.488 0 .942.085 1.349.252.401.164.752.418 1.044.754.295.34.531.774.701 1.29.171.524.258 1.147.258 1.852 0 .706-.087 1.329-.258 1.852-.17.516-.406.949-.7 1.286a2.838 2.838 0 0 1-1.046.755c-.407.17-.86.256-1.348.256Z" clip-rule="evenodd"/>
  <path fill="#fff" d="M111.18 39.467c.19-.448.287-1.09.287-1.908v-7.19h2.735v7.39c0 .515-.03.99-.089 1.411a5.2 5.2 0 0 1-.301 1.181c-.171.444-.406.85-.696 1.205a3.999 3.999 0 0 1-1.074.91 5.257 5.257 0 0 1-1.432.562 7.631 7.631 0 0 1-1.781.193c-.65 0-1.246-.065-1.771-.193a5.056 5.056 0 0 1-1.412-.563 4.018 4.018 0 0 1-1.054-.91 4.468 4.468 0 0 1-.692-1.206 5.22 5.22 0 0 1-.3-1.179c-.059-.42-.088-.895-.088-1.412v-7.39h2.735v7.191c0 .818.096 1.46.287 1.908.207.486.498.825.889 1.037.4.216.882.326 1.434.326.551 0 1.033-.11 1.433-.326.391-.212.682-.551.89-1.037Z"/>
  <path fill="#fff" fill-rule="evenodd" d="M122.929 30.687a7.24 7.24 0 0 0-1.216-.24 13.729 13.729 0 0 0-1.564-.079h-3.753v12.627h2.736v-4.71a19.186 19.186 0 0 0 .872.023c.888 0 1.686-.092 2.373-.272.697-.182 1.297-.447 1.785-.79a3.55 3.55 0 0 0 1.14-1.283 3.668 3.668 0 0 0 .391-1.698c0-.913-.245-1.68-.727-2.28-.477-.593-1.162-1.03-2.037-1.298Zm-3.797 2.054h.99c.439 0 .814.016 1.117.048.29.031.534.08.723.145.346.124.588.293.719.5.138.22.204.476.204.786 0 .252-.047.486-.14.696a1.24 1.24 0 0 1-.445.517c-.22.153-.519.275-.89.363-.383.092-.868.138-1.442.138a12.689 12.689 0 0 1-.836-.028V32.74Z" clip-rule="evenodd"/>
  <path fill="#fff" d="m149.603 19.33-3.21 7.21h-5.116V14.501h3.141v8.753l3.898-8.753h3.563a1006.215 1006.215 0 0 0 1.594 8.256 2.384 2.384 0 0 0 .143.484l.016.03.009.018a.822.822 0 0 0 .059.103.894.894 0 0 0 .418.359c.148.074.312.12.489.12.653 0 .958-.448 1.207-.981l3.647-8.39h3.424l-4.217 9.702a1.517 1.517 0 0 1-.053.11c-1.172 2.209-2.821 2.673-3.998 2.673-2.163 0-3.822-1.432-4.231-3.65a445.85 445.85 0 0 1-.783-4.005Z"/>
</svg>
