<svg xmlns="http://www.w3.org/2000/svg" width="180" height="58" fill="none" viewBox="0 0 180 58">
  <g fill="#fff" clip-path="url(#a)">
    <path d="M97.967 38.087v-2.055c1.014-.009 3.096-.021 3.309 0 .267.027.961.16.961 1.041 0 .705-.551.97-.827 1.014h-3.443Zm.027 2.709v2.283h3.83a1.11 1.11 0 0 0 .921-1.127c0-.978-.772-1.126-1.069-1.156-.238-.023-2.554-.01-3.682 0ZM76.32 20.985h1.788c1.716 0 3.431-.82 3.431-3.05 0-.736-.265-2.823-3.431-2.823H76.32v5.873Zm23.407 0H97.94v-5.873h1.788c3.166 0 3.432 2.087 3.432 2.822 0 2.231-1.716 3.051-3.432 3.051Z"/>
    <path fill-rule="evenodd" d="M61 0h57.651v57.651H61V0Zm33.23 46.121V33.176h8.194c2.178 0 3.185 1.424 3.417 2.136.053.133.213.587.16 1.734-.054 1.148-1.032 1.869-1.522 2.109.641.107 2.002.934 2.002 3.31 0 2.626-2.331 3.532-3.496 3.656H94.23Zm-21.752-34.59h5.98c4.338 0 7.044 2.46 7.044 6.403 0 4.016-2.766 6.621-7.044 6.621h-5.98V11.53Zm27.6 0h-5.981v13.024h5.981c4.277 0 7.044-2.605 7.044-6.62 0-3.944-2.707-6.405-7.044-6.405ZM72.023 33.148h4.298l2.829 7.394 3.016-7.394h4.137L80.644 46.12h-3.016l-5.605-12.972Z" clip-rule="evenodd"/>
  </g>
  <defs>
    <clipPath id="a">
      <path fill="#fff" d="M0 0h179.716v57.651H0z"/>
    </clipPath>
  </defs>
</svg>
