<svg xmlns="http://www.w3.org/2000/svg" width="180" height="58" fill="none" viewBox="0 0 180 58">
  <g fill="#fff" clip-path="url(#a)">
    <path fill-rule="evenodd" d="M11.142 23.166c-.9-1.247-2.284-2.01-4.222-2.01C2.907 21.157 0 24.483 0 28.5c0 4.018 2.837 7.343 6.92 7.343 1.938 0 3.322-.762 4.222-2.009v1.594h3.53V17h-3.53v6.166Zm-3.806 9.768c-2.422 0-3.807-2.01-3.807-4.434 0-2.425 1.385-4.434 3.807-4.434 2.422 0 3.806 2.01 3.806 4.434 0 2.425-1.384 4.434-3.806 4.434Z" clip-rule="evenodd"/>
    <path d="M67.96 31.41c0 .554.415 1.039 1.037 1.039v.07h1.869v2.978h-3.114a3.324 3.324 0 0 1-3.322-3.325v-8.036h-2.353v-2.633h2.353V17h3.53v4.503h2.63v2.633h-2.63v7.274Zm75.293-11.431c.069-.139.208-.139.208 0-.07 3.394-.693 6.512-2.077 9.421-.276-1.039-.692-2.009-1.176-2.979 1.453-2.078 2.422-4.295 3.045-6.442Zm15.086.484h1.384v13.025h-1.384V20.464Z"/>
    <path fill-rule="evenodd" d="m147.959 34.042-.623 1.04c1.245.83 2.63 1.246 4.152 1.315 1.453 0 2.699-.415 3.53-1.247.761-.762 1.176-1.8 1.176-3.256v-7.62h-1.384v1.662c-.761-1.039-1.869-1.87-3.599-1.87-2.145 0-4.29 1.663-4.29 4.364v.07c0 2.632 2.076 4.295 4.29 4.295 1.661 0 2.768-.9 3.599-1.94v1.109c0 2.147-1.315 3.256-3.322 3.256-1.315 0-2.491-.416-3.529-1.178Zm3.529-8.729c1.73 0 3.391 1.178 3.391 3.117 0 1.87-1.661 3.118-3.391 3.118s-3.183-1.247-3.183-3.117c0-1.94 1.453-3.118 3.183-3.118Zm11.696 6.373v1.732H161.8V20.464h1.384v5.611c.761-1.108 1.799-2.078 3.529-2.078 2.215 0 4.36 1.732 4.36 4.78 0 2.979-2.145 4.78-4.36 4.78-1.73.07-2.837-.831-3.529-1.87Zm6.505-2.77c0-2.218-1.522-3.603-3.253-3.603-1.73 0-3.321 1.455-3.321 3.533 0 2.148 1.591 3.533 3.321 3.533 1.8.07 3.253-1.247 3.253-3.464Zm6.09-1.178c-2.353 0-3.945 1.039-3.945 3.048 0 1.87 1.73 2.84 3.46 2.91 1.661 0 2.699-.763 3.322-1.594v1.386H180v-5.612c0-1.178-.346-2.078-.969-2.702-.692-.692-1.661-1.039-2.976-1.039s-2.283.277-3.321.762l.415 1.109c.83-.347 1.661-.624 2.768-.624 1.73 0 2.699.831 2.699 2.494v.277c-.831-.277-1.661-.415-2.837-.415Zm2.837 1.524v.831c0 1.455-1.384 2.494-3.114 2.494-1.246 0-2.284-.624-2.284-1.801v-.07c0-1.108.969-1.87 2.699-1.87a9.2 9.2 0 0 1 2.699.416Z" clip-rule="evenodd"/>
    <path d="M143.045 30.3c.139-.069.139-.138 0-.207a28.87 28.87 0 0 0-1.661-.416l.077.263c.111.378.213.727.269 1.123.15-.086.294-.165.433-.242.309-.17.596-.329.882-.52Zm-12.388 3.188c2.838-1.109 5.191-2.494 7.267-4.157v.07c.034.276.052.554.069.83.017.278.035.555.069.832v1.593c-2.214.693-4.706 1.04-7.336 1.04-.207 0-.207-.139-.069-.208Z"/>
    <path d="M140.969 29.677c-.277-.97-.623-1.87-1.038-2.77a18.721 18.721 0 0 0-3.668-5.197c1.038 2.079 1.73 4.503 2.076 7.205 0 .07.018.139.035.208.017.07.034.139.034.208l.018.173c.063.625.121 1.201.121 1.836v1.178c.081 0 .138-.024.186-.044a.243.243 0 0 1 .091-.026 1.18 1.18 0 0 1 .173-.069c.052-.017.104-.035.173-.07.104-.034.19-.068.277-.103a4.76 4.76 0 0 1 .276-.104c.554-.208 1.108-.485 1.661-.762-.069-.416-.138-.831-.277-1.247-.034-.07-.051-.139-.069-.208a.94.94 0 0 0-.069-.208Zm-14.255-9.007h-.831v15.52h.831V20.67Z"/>
    <path fill-rule="evenodd" d="M81.385 24.343c.415-.208.623-.693.623-1.178 0-.9-.623-1.593-1.938-1.732h-2.56v5.681h2.629c1.246 0 1.869-.693 1.869-1.593 0-.485-.208-.9-.623-1.178ZM80 23.927h-1.385v-1.385H80c.553 0 .9.208.9.692 0 .485-.347.693-.9.693Zm0 2.287h-1.385v-1.317H80c.553 0 .9.208.9.693 0 .416-.347.623-.9.623Zm6.368-1.248 1.66 2.217h-1.383l-1.661-2.147h-.9v2.147h-1.038v-5.68h2.768c1.315 0 1.938.831 1.938 1.732.07.9-.415 1.593-1.384 1.732Zm-2.215-.9h1.592c.554 0 .9-.277.9-.762s-.346-.762-.9-.762h-1.592v1.524Zm8.927 3.117h1.177l-2.353-5.68h-1.107l-2.492 5.68h1.107l.554-1.247h2.56l.554 1.247Zm-1.799-4.156.83 1.94h-1.66l.83-1.94Z" clip-rule="evenodd"/>
    <path d="M100.07 21.572v5.68h-1.176l-2.838-3.948v3.949H94.95v-5.681h1.176l2.838 3.949v-3.95h1.107Z"/>
    <path fill-rule="evenodd" d="M106.367 24.412c0-1.593-1.107-2.84-3.045-2.84h-1.937v5.68h1.937c1.938 0 3.045-1.316 3.045-2.84Zm-3.114-1.8c1.246 0 2.007.761 2.007 1.8 0 1.04-.761 1.802-2.007 1.87h-.83v-3.67h.83Z" clip-rule="evenodd"/>
    <path d="M108.513 27.183h-1.107v-5.68h1.107v5.68Zm6.436.07v-5.681h-1.108v3.949l-2.837-3.95h-1.177v5.682h1.108v-3.95l2.837 3.95h1.177Zm.968-2.841c0-1.662 1.246-2.91 2.907-2.91 1.246 0 2.145.693 2.56 1.663h-1.176c-.277-.415-.761-.692-1.384-.692-1.038 0-1.799.83-1.799 1.94 0 1.108.761 1.94 1.799 1.94.83 0 1.315-.486 1.522-1.179h-1.868v-.97h3.045c0 1.94-1.177 3.187-2.699 3.187-1.592-.07-2.907-1.316-2.907-2.979Z"/>
    <path fill-rule="evenodd" d="M81.661 35.428h1.177l-2.422-5.681h-1.108l-2.491 5.68h1.176l.554-1.246h2.56l.554 1.247Zm-1.038-2.217h-1.66l.83-1.94.83 1.94Z" clip-rule="evenodd"/>
    <path d="M83.115 32.657c0-1.663 1.246-2.91 2.907-2.91 1.245 0 2.145.693 2.56 1.663h-1.176c-.277-.416-.762-.693-1.385-.693-1.037 0-1.799.831-1.799 1.94 0 1.108.762 1.94 1.8 1.94.83 0 1.314-.486 1.522-1.178h-1.868v-.97h3.044c0 1.94-1.176 3.187-2.698 3.187-1.661-.07-2.907-1.317-2.907-2.98Zm7.75-.555v-1.455h2.837v-.97h-3.944v5.68h3.944v-.969h-2.837v-1.316h2.768v-.97h-2.768ZM100 29.816v5.68h-1.176l-2.837-3.948v3.948h-1.108v-5.68h1.177l2.837 3.949v-3.95H100Zm5.329 1.524h1.177c-.484-.97-1.384-1.663-2.561-1.663-1.661 0-2.906 1.247-2.906 2.91 0 1.662 1.245 2.91 2.906 2.91 1.246 0 2.077-.624 2.561-1.663h-1.177c-.346.415-.83.693-1.384.693-1.038 0-1.799-.832-1.799-1.94 0-1.109.761-1.94 1.799-1.94.554 0 1.108.277 1.384.693Zm5.745-1.524h1.177l-2.215 3.671v2.01h-1.107v-2.01l-2.215-3.671h1.246l1.522 2.563 1.592-2.563Z"/>
    <path fill-rule="evenodd" d="M47.474 28.5c0-4.018 3.322-7.343 7.336-7.343s7.336 3.325 7.336 7.343-3.322 7.343-7.336 7.343-7.336-3.325-7.336-7.343Zm3.53 0c0 2.425 1.384 4.434 3.806 4.434s3.806-2.01 3.806-4.434c0-2.425-1.384-4.434-3.806-4.434s-3.806 2.01-3.806 4.434Zm-11.488-7.343c-1.938 0-3.322.762-4.221 2.009v-1.663h-3.53V40h3.53v-6.166c.9 1.247 2.283 2.01 4.221 2.01 4.014 0 6.92-3.326 6.92-7.344 0-4.018-2.906-7.343-6.92-7.343Zm-.415 11.777c-2.422 0-3.806-2.01-3.806-4.434 0-2.425 1.384-4.434 3.806-4.434s3.806 2.01 3.806 4.434c0 2.425-1.453 4.434-3.806 4.434ZM15.986 28.5c0-4.018 3.322-7.343 7.336-7.343 4.152 0 7.059 2.91 7.059 7.966v.485H19.585c.415 1.94 1.73 3.326 3.737 3.326 1.453 0 2.56-.693 3.183-1.801h3.668c-.277.762-.692 1.385-1.176 2.009-1.384 1.731-3.46 2.701-5.675 2.701-4.014 0-7.336-3.325-7.336-7.343Zm11.004-1.316c-.415-1.802-1.73-3.118-3.668-3.118-1.938 0-3.253 1.317-3.668 3.118h7.336Z" clip-rule="evenodd"/>
  </g>
  <defs>
    <clipPath id="a">
      <path fill="#fff" d="M0 0h179.716v57.651H0z"/>
    </clipPath>
  </defs>
</svg>
