<svg xmlns="http://www.w3.org/2000/svg" width="180" height="58" fill="none" viewBox="0 0 180 58">
  <g fill="#fff" clip-path="url(#a)">
    <path fill-rule="evenodd" d="M28.988 34.968a10.647 10.647 0 0 0 7.287 3.245c1.963 0 4.498-.585 5.733-2.25l.169-.22.09.26c.312.761.7 1.489 1.158 2.17l5.89-2.989c-1.704-2.912-2.172-5.59-2.172-12.012V7l-6.617 1.196v9.854l-.273-.104a7.657 7.657 0 0 0-3.978-1.014 10.647 10.647 0 0 0-7.287 18.036Zm5.926-11.744a4.565 4.565 0 0 1 5.155 6.89 4.565 4.565 0 0 1-8.27-1.645 4.562 4.562 0 0 1 3.115-5.245Z" clip-rule="evenodd"/>
    <path d="M84.283 38.2a8.385 8.385 0 0 1-5.369-1.95c-3.419-2.782-3.419-6.59-3.419-10.608v-5.655h-2.6V14.15h2.6V8.365l6.631-1.196v6.98h6.136l-1.3 5.799h-4.836v5.369a15.917 15.917 0 0 0 .454 4.823c.442 1.196 1.145 1.3 1.703 1.3a2.017 2.017 0 0 0 1.301-.481l4.107 5.2a8.983 8.983 0 0 1-5.408 2.04Zm65.238-19.828a3.105 3.105 0 0 0 3.922-.387 3.108 3.108 0 1 0-5.067-1.008l.036.084.068.143.078.142a3.131 3.131 0 0 0 .963 1.026ZM127.105 51.85c3.121 4.043 7.02 5.85 12.597 5.85 7.177 0 12.39-4.017 12.324-9.477a8.361 8.361 0 0 0-2.755-6.318c-1.183-1.196-3.211-2.496-7.8-2.496h-5.448a1.786 1.786 0 0 1-1.613-.609l-.056-.07-.046-.061a1.517 1.517 0 0 1 .22-1.548l-4.862-4.342c-3.327 4.277-2.105 7.722-1.638 8.684 1.392 2.951 4.758 4.563 9.464 4.563h5.005a3.273 3.273 0 0 1 2.523.845 1.763 1.763 0 0 1 .455 1.3c-.157 1.769-2.418 2.913-5.773 2.913a8.731 8.731 0 0 1-4.519-.829 8.73 8.73 0 0 1-3.476-3.007l-4.602 4.602Z"/>
    <path fill-rule="evenodd" d="M94.627 36.424a10.646 10.646 0 1 0 11.814-17.715 10.646 10.646 0 0 0-11.814 17.715Zm3.385-12.639a4.562 4.562 0 1 1 5.07 7.586 4.562 4.562 0 0 1-5.07-7.586ZM61.547 38.213a10.646 10.646 0 0 1-2.105-21.089 10.646 10.646 0 0 1 12.726 10.455 10.632 10.632 0 0 1-10.621 10.634Zm0-15.197a4.564 4.564 0 0 0-3.227 7.79 4.57 4.57 0 0 0 4.973.988 4.558 4.558 0 0 0 2.817-4.215 4.552 4.552 0 0 0-1.337-3.227 4.562 4.562 0 0 0-3.226-1.336Z" clip-rule="evenodd"/>
    <path d="M114.626 17.569V37.68h6.617V27.605a3.655 3.655 0 0 1 3.536-3.822 7.148 7.148 0 0 1 2.925.767l2.99-6.136a7.809 7.809 0 0 0-3.9-1.144 6.658 6.658 0 0 0-5.239 2.795l-.273.338v-2.834h-6.656Z"/>
    <path fill-rule="evenodd" d="M140.626 35.756a9.643 9.643 0 0 1-9.399-9.399 9.648 9.648 0 0 1 9.399-9.412 9.527 9.527 0 0 1 9.386 9.412 9.517 9.517 0 0 1-9.386 9.4Zm0-12.817a3.41 3.41 0 0 0-1.9.576 3.421 3.421 0 0 0-.518 5.26 3.42 3.42 0 0 0 4.839-4.839 3.447 3.447 0 0 0-1.111-.741 3.428 3.428 0 0 0-1.31-.256Z" clip-rule="evenodd"/>
  </g>
  <defs>
    <clipPath id="a">
      <path fill="#fff" d="M0 0h179.716v57.651H0z"/>
    </clipPath>
  </defs>
</svg>
