<svg xmlns="http://www.w3.org/2000/svg" width="180" height="58" fill="none" viewBox="0 0 180 58">
  <path fill="#fff" fill-rule="evenodd" d="M139.705 14.823c0 .855-.072 1.78-.285 2.635a10.133 10.133 0 0 1-.784 2.493c-.356.783-.783 1.566-1.281 2.207-.499.712-1.14 1.282-1.852 1.78-.712.498-1.495.926-2.421 1.21-.854.285-1.851.428-2.919.428s-2.065-.143-2.991-.427c-.926-.285-1.709-.713-2.421-1.21-.712-.5-1.282-1.069-1.851-1.781a13.66 13.66 0 0 1-1.282-2.207c-.356-.784-.57-1.638-.783-2.493-.143-.854-.285-1.78-.285-2.634 0-1.567.213-3.062.641-4.344.427-1.353 1.068-2.492 1.851-3.418.997-.997 1.994-1.71 3.133-2.279 1.14-.498 2.492-.783 3.988-.783 1.495 0 2.848.285 3.987.783a7.814 7.814 0 0 1 2.991 2.208c.783.925 1.424 2.065 1.852 3.418.498 1.353.712 2.777.712 4.414Zm-2.564 0c0-1.21-.142-2.35-.427-3.346a7.687 7.687 0 0 0-1.353-2.635 6.313 6.313 0 0 0-2.136-1.709c-.855-.427-1.852-.64-2.92-.64-1.068 0-2.065.213-2.919.64a6.307 6.307 0 0 0-2.137 1.71 7.685 7.685 0 0 0-1.352 2.634c-.285.997-.499 2.136-.499 3.346 0 1.282.143 2.422.427 3.418.285.997.712 1.923 1.282 2.635a6.313 6.313 0 0 0 2.136 1.71c.855.426 1.852.64 3.062.64 1.14 0 2.136-.214 3.062-.64a6.294 6.294 0 0 0 2.136-1.71c.57-.712.997-1.638 1.282-2.635.214-1.068.356-2.207.356-3.418Z" clip-rule="evenodd"/>
  <path fill="#fff" d="M22.213 4.499h2.563v9.969l9.542-9.97h3.632l-8.118 8.332 8.331 12.248h-3.346L27.98 14.68l-3.133 3.205v7.12h-2.635V4.5Zm19.439 0h2.635v16.59h.071L54.256 4.5h2.99v20.507h-2.634V8.344h-.071l-9.827 16.733h-2.99L41.652 4.5Zm34.963 0h-15.88v2.42h6.623v18.159h2.634V6.92h6.623V4.499Zm5.412 5.625h2.421v11.464h.072l6.978-11.464h2.777v14.954h-2.421V13.613h-.071l-6.907 11.465h-2.849V10.124Zm23.498-5.625h-2.563v20.507h2.563v-7.12l3.134-3.205 6.835 10.325h3.347L110.51 12.76l8.118-8.26h-3.632l-9.471 9.969v-9.97Zm51.84 0h-15.88v2.42h6.623v18.159h2.634V6.92h6.623V4.499ZM25.632 51.14a3.62 3.62 0 0 1-1.567-.357c-.427-.213-.855-.498-1.14-.925-.284-.428-.569-.855-.711-1.425A7.348 7.348 0 0 1 22 46.582c0-.64.071-1.282.214-1.851.142-.57.356-1.069.712-1.496.356-.427.712-.783 1.139-.997.427-.213.997-.356 1.638-.356.427 0 .854.072 1.21.214.356.142.712.285.997.57.285.284.57.57.712.925.214.356.285.855.356 1.353h-1.281c-.072-.57-.285-.997-.641-1.282-.356-.284-.784-.498-1.282-.498-.427 0-.855.071-1.14.285-.284.214-.569.427-.711.783-.159.264-.239.528-.328.821-.03.103-.063.208-.1.319-.07.427-.142.854-.142 1.281 0 .373.054.692.115 1.051v.001c.01.052.018.105.027.159.072.356.214.712.428 1.068.213.285.427.57.712.712.284.214.64.285 1.068.285.64 0 1.14-.214 1.495-.57.356-.356.57-.926.641-1.567h1.282c-.214.997-.57 1.852-1.14 2.422-.57.64-1.353.925-2.35.925Zm3.916-7.833h2.777v7.619h1.282v-7.62h2.848v-1.281h-6.907v1.282Z"/>
  <path fill="#fff" fill-rule="evenodd" d="M37.523 42.025h1.282v1.21a2.1 2.1 0 0 1 .997-1.068 3.309 3.309 0 0 1 1.495-.356c.57 0 1.14.142 1.567.356.427.285.783.57 1.14.997.284.427.498.926.64 1.495.143.57.214 1.14.214 1.78a7.14 7.14 0 0 1-.214 1.78 4.748 4.748 0 0 1-.64 1.496c-.285.427-.642.712-1.14.997a3.625 3.625 0 0 1-1.567.356c-.213 0-.427 0-.64-.071-.214-.071-.428-.143-.712-.214-.214-.071-.428-.214-.641-.427-.168-.112-.291-.31-.405-.494l-.094-.147v4.557h-1.282V42.025Zm3.632 7.833c.427 0 .783-.072 1.068-.285.285-.214.57-.428.712-.784.198-.263.273-.648.34-.985l.016-.083c.071-.427.143-.854.143-1.281 0-.373-.055-.692-.116-1.051a57.045 57.045 0 0 1-.027-.16c-.071-.427-.213-.783-.427-1.068-.214-.285-.427-.57-.783-.712-.285-.214-.641-.285-1.068-.285-.428 0-.784.071-1.069.285-.284.213-.57.427-.712.783-.213.285-.356.641-.427 1.068l-.027.16c-.061.359-.115.678-.115 1.05 0 .428.071.855.142 1.282.071.428.214.784.427 1.069.214.284.428.57.784.712.356.213.712.285 1.139.285Zm6.337 1.139c.285.071.641.142.997.142.57 0 1.068-.142 1.424-.285.428-.213.855-.57 1.21-1.068 0 .499.072.855.286 1.068.213.214.427.285.783.285.427 0 .712-.071.926-.213v-1.14c-.143.072-.285.072-.356.072-.214 0-.356-.072-.356-.214-.072-.214-.072-.427-.072-.783v-4.558c0-.57-.142-.997-.285-1.281-.213-.356-.427-.641-.712-.784-.284-.213-.57-.285-.925-.356-.356-.071-.712-.071-1.068-.071-.428 0-.855.071-1.21.142-.357.072-.713.285-.998.499-.285.214-.498.57-.712.926-.142.427-.285.854-.285 1.424h1.282c0-.641.214-1.14.57-1.353.356-.214.783-.356 1.353-.356.106 0 .213.018.32.035.107.018.214.036.32.036.214.071.428.142.57.214a.642.642 0 0 1 .427.427c.072.214.143.498.143.783 0 .285-.071.499-.214.641a1.55 1.55 0 0 1-.57.356c-.142.036-.284.053-.427.071a3.564 3.564 0 0 0-.427.071c-.285.072-.64.143-.997.214-.212.042-.423.11-.62.173a6.414 6.414 0 0 1-.377.112c-.356.071-.64.214-.854.427a3.164 3.164 0 0 0-.57.783c-.142.285-.213.712-.213 1.21 0 .428.07.855.213 1.14.143.356.356.57.57.783.285.214.57.357.854.428Zm2.35-1.353c-.285.142-.64.214-1.068.214-.142 0-.356 0-.498-.072a3.46 3.46 0 0 1-.499-.213c-.142-.143-.285-.285-.356-.428-.071-.213-.142-.427-.142-.64 0-.357.07-.641.213-.855.143-.214.356-.356.57-.498.214-.072.498-.143.783-.214.142-.036.285-.053.427-.071.143-.018.285-.036.428-.071.236 0 .423-.05.642-.107l.141-.036a.902.902 0 0 0 .64-.285v1.496c0 .213-.07.427-.142.64-.07.214-.213.428-.427.641-.142.214-.427.356-.712.499Z" clip-rule="evenodd"/>
  <path fill="#fff" d="M56.322 43.307h-2.777v-1.282h6.836v1.282h-2.777v7.619h-1.282v-7.62Z"/>
  <path fill="#fff" fill-rule="evenodd" d="M63.087 50.783c.498.214.996.356 1.637.356.855 0 1.567-.285 2.279-.783.57-.499.997-1.282 1.14-2.279H66.86c-.143.57-.357.997-.713 1.282-.356.285-.783.427-1.352.427-.357 0-.784-.071-1.069-.213-.356-.143-.57-.356-.783-.641a2.207 2.207 0 0 1-.427-.926c-.143-.356-.143-.783-.143-1.14h5.84c0-.569-.072-1.139-.143-1.708a4.494 4.494 0 0 0-.57-1.638c-.213-.57-.64-.926-1.068-1.282-.427-.356-.997-.498-1.709-.498a3.31 3.31 0 0 0-1.495.356c-.427.285-.783.57-1.14.997-.355.427-.57.925-.783 1.495-.213.57-.284 1.21-.284 1.851s.07 1.282.213 1.852c.142.57.427 1.068.712 1.495.285.427.641.783 1.14.997Zm3.489-6.124c.142.356.213.641.213.997v.071h-4.557c.071-.356.142-.712.214-.996.07-.285.213-.57.427-.784.214-.285.427-.427.712-.57.285-.142.57-.213.926-.213.285 0 .57.071.854.213.285.072.499.285.712.499.214.214.356.498.499.783Z" clip-rule="evenodd"/>
  <path fill="#fff" d="M69.495 42.025h5.34v1.282h-4.058v7.619h-1.282v-8.901Zm7.62 0h-1.282v8.9h1.638l3.703-7.262v7.263h1.281v-8.901h-1.638l-3.702 7.263v-7.263Z"/>
  <path fill="#fff" fill-rule="evenodd" d="M86.016 47.437c-.57-.072-.997-.356-1.353-.855-.356-.498-.499-1.068-.499-1.851 0-.855.214-1.496.641-1.994.427-.498.997-.712 1.78-.712h3.917v8.9H89.22v-3.417h-1.71l-2.35 3.418h-1.709l2.564-3.49Zm3.204-1.21v-2.92h-2.28c-.57 0-.925.142-1.139.427-.214.285-.356.64-.356 1.068 0 .427.142.783.356 1.068.214.285.64.356 1.14.356h2.278Z" clip-rule="evenodd"/>
  <path fill="#fff" d="M97.907 42.025h-1.282v8.9h1.638l3.703-7.262v7.263h1.281v-8.901h-1.637l-3.703 7.263v-7.263Z"/>
  <path fill="#fff" fill-rule="evenodd" d="M108.374 49.644h.926c.099-.148.163-.365.241-.627.034-.115.071-.24.115-.37.142-.427.213-.854.285-1.424.071-.498.142-1.068.213-1.638.071-.57.071-1.14.071-1.709v-1.922h5.626v7.619h1.068v3.987h-1.211v-2.634h-6.123v2.706h-1.211v-3.988Zm6.266-6.337h-3.133v.783c0 .57 0 1.14-.071 1.709a78.302 78.302 0 0 1-.214 1.565v.001c-.039.276-.1.53-.159.775a8.184 8.184 0 0 0-.126.578 3.88 3.88 0 0 1-.183.672c-.038.113-.075.22-.101.325h3.987v-6.408Z" clip-rule="evenodd"/>
  <path fill="#fff" d="M119.412 42.025h-1.282v8.9h1.638l3.702-7.262v7.263h1.282v-8.901h-1.638l-3.702 7.263v-7.263Zm10.112 9.115c-1.069 0-1.852-.285-2.422-.784-.569-.498-.925-1.282-.925-2.279h1.281c.072.641.285 1.14.641 1.425.356.284.855.427 1.425.427.64 0 1.068-.143 1.424-.427.356-.285.498-.713.498-1.14 0-.427-.142-.783-.356-1.068-.285-.285-.712-.356-1.282-.356h-1.068v-1.21h.855c.427 0 .854-.072 1.139-.285.356-.214.498-.57.498-1.14 0-.356-.142-.64-.427-.854-.285-.214-.712-.356-1.21-.356-.214 0-.428 0-.712.071-.214.071-.428.143-.641.285-.214.142-.356.285-.427.498-.143.214-.214.428-.214.784h-1.282c0-.57.143-.997.356-1.353.214-.356.427-.641.783-.855.285-.213.641-.356.997-.427.356-.071.784-.142 1.14-.142.427 0 .783.07 1.139.142.356.071.641.214.926.427.285.214.498.427.641.784.142.356.213.64.213 1.068 0 .498-.142.925-.356 1.281-.285.285-.569.499-.854.57.213 0 .356.071.569.214.214.07.356.213.499.427.142.142.285.427.356.64.071.286.142.57.142.927 0 .498-.071.925-.285 1.281-.213.356-.427.641-.712.855-.284.213-.641.427-.997.498-.305 0-.549.02-.775.04-.196.016-.379.031-.577.031Z"/>
  <path fill="#fff" fill-rule="evenodd" d="M135.434 50.997c.284.071.641.142.997.142.569 0 1.068-.142 1.424-.285a3.37 3.37 0 0 0 1.21-1.068c0 .499.071.855.285 1.068.214.214.427.285.783.285.428 0 .712-.071.926-.213v-1.14c-.142.072-.285.072-.356.072-.214 0-.356-.072-.356-.214-.071-.214-.071-.427-.071-.783v-4.558c0-.57-.143-.997-.285-1.281-.214-.356-.427-.641-.712-.784-.285-.213-.57-.285-.926-.356-.356-.071-.712-.071-1.068-.071-.427 0-.854.071-1.21.142-.357.072-.713.285-.997.499-.285.214-.499.57-.712.925-.143.428-.285.855-.285 1.425h1.281c0-.641.214-1.14.57-1.353.356-.214.783-.356 1.353-.356.107 0 .214.018.32.035.107.018.214.036.321.036.214.071.427.142.57.214a.642.642 0 0 1 .427.427c.071.214.142.498.142.783 0 .285-.071.499-.213.641-.143.142-.285.285-.57.356-.142.036-.285.053-.427.071a3.577 3.577 0 0 0-.428.071c-.284.072-.64.143-.996.214-.178.036-.339.09-.499.142-.16.054-.32.107-.498.143-.356.071-.641.214-.855.427a3.167 3.167 0 0 0-.569.783c-.143.285-.214.712-.214 1.21 0 .428.071.855.214 1.14.142.356.356.57.569.783.285.214.57.357.855.428Zm2.35-1.353c-.285.142-.641.214-1.069.214-.213 0-.427 0-.498-.072-.214-.07-.356-.142-.499-.213-.142-.143-.284-.285-.356-.428-.071-.213-.142-.427-.142-.64 0-.357.071-.641.214-.855.142-.214.356-.356.569-.498.214-.072.499-.143.784-.214.142-.036.284-.053.427-.071.142-.018.285-.036.427-.071.236 0 .423-.05.642-.107l.066-.017.075-.019a.902.902 0 0 0 .641-.285v1.496c0 .213-.071.427-.142.64-.071.214-.214.428-.427.641-.143.214-.428.356-.712.499Z" clip-rule="evenodd"/>
  <path fill="#fff" d="M142.341 42.025h1.282v7.263l3.702-7.263h1.638v8.9h-1.282v-7.262l-3.702 7.263h-1.638v-8.901Zm3.275-1.282c-.284 0-.569-.071-.854-.142-.209-.053-.38-.182-.54-.303a3.53 3.53 0 0 0-.172-.125 2.563 2.563 0 0 1-.499-.712c-.142-.285-.142-.57-.142-.997h1.068c0 .855.356 1.282 1.068 1.282.356 0 .641-.142.783-.356.214-.214.285-.57.285-.926h1.068c0 .356-.071.641-.142.926-.142.285-.285.498-.427.712-.214.214-.428.356-.712.427-.143.143-.428.214-.784.214Zm6.551 1.282h-1.281v8.9h1.281v-4.058h3.917v4.059h1.282v-8.901h-1.282v3.56h-3.917v-3.56Z"/>
</svg>
