<svg xmlns="http://www.w3.org/2000/svg" width="180" height="58" fill="none" viewBox="0 0 180 58">
  <path fill="#fff" d="M52.919 36.926v5.01l-17.511-.05 8.857-27.835h5.718L43.81 33.333c-.455 1.417-.86 2.632-1.164 3.644l10.274-.05Zm4.403 4.96H77.97v-5.01H62.889V29.74h11.134v-4.808H62.89V19.06h15.082v-5.01h-20.7l.05 27.835ZM36.218 23.008c0 4.404-2.784 8.908-9.515 8.908h-7.136v9.92H14V14h12.652c6.782.05 9.566 4.757 9.566 9.009Zm-5.567.152c0-2.328-1.418-4.15-5.061-4.15h-6.073v8.148h6.073c3.643.051 5.06-1.77 5.06-3.998Zm70.803 9.92c-.355-.506-.709-1.012-1.266-1.771L87.89 14.1h-5.77v27.836h5.365v-19.13c.355.455.76 1.011 1.266 1.77l12.348 17.309h5.669V14.051h-5.365l.051 19.029Zm57.644-19.03-4.909 16.095c-.152.455-.557 1.77-.962 3.137-.455-1.366-.86-2.682-.961-3.137l-5.061-16.094h-6.832v27.835h5.01V24.223c.506 1.57.911 3.037 1.316 4.251l4.251 13.412h4.302l4.352-13.412c.405-1.214.81-2.631 1.316-4.25v17.662h4.96V14.051h-6.782Zm-29.505 16.246c0 5.72-1.316 7.592-6.023 7.592s-6.124-1.974-6.124-7.592V14.051h-5.567v17.106c0 7.54 3.847 11.539 11.641 11.539 7.743 0 11.64-4.049 11.64-11.54V14.052h-5.567v16.245Z"/>
</svg>
