<svg xmlns="http://www.w3.org/2000/svg" width="180" height="58" fill="none" viewBox="0 0 180 58">
  <g clip-path="url(#a)">
    <path fill="#fff" d="M121.819 4.01c-.783-1.08-2.291-.851-4.047.267-1.575 1.001-2.262 1.689-1.932 2.912-.546.554-1.288 1.173-1.974 1.716-4.972-6.349-12.703-10.434-21.392-10.434-8.326 0-15.773 3.75-20.755 9.648-.411.149-.748.274-.95.352-3.266 1.52-7.868 2.746-9.905 4.875-1.229 1.55-.997 4.058-.149 3.942 1.434-.194 4.65-2.492 5.178-3.213.582-1.932.93-1.867 3.509-3.087l.29-.138a27.167 27.167 0 0 0-2.184 25.485c-.736 1.961-1.32 3.573-1.485 4.126-.714 1.665-1.347 4.515-1.187 5.202.15.65 1.168 1.737 2.442 1.737.624 0 .576-2.292 1.388-5.304.216-.802.426-1.562.633-2.299a27.3 27.3 0 0 0 7.003 7.655c-.244.257-.485.512-.732.769-3.802 3.951-7.704 6.804-10.49 7.74-.663.173-1.806-.418-2.892-.329-2.163.178-4.495 1.327-4.14 2.478 1.58 3.36 8.489-.138 10.577-1.35 3.678-2.046 6.627-4.37 9.786-7.563.06-.06.135-.138.203-.21a27.155 27.155 0 0 0 24.937 1.444 13.41 13.41 0 0 0 2.192.168c1.6.024 5.41-.714 6.498-1.226.856-.404 1.675-1.027 1.398-1.957-.372-1.245-1.67.663-2.422.973-1.939.798-3.742 1.053-5.41.906 8.254-4.662 13.831-13.507 13.831-23.662a27.03 27.03 0 0 0-2.982-12.364c1.079-1.827 2.507-4.215 3.496-5.748.872-1.358 2.338-2.585 1.667-3.511Zm-8.036 8.514c-1.058 2.478-2.562 5.737-7.201 16.328-1.435-.48-3.641-1.402-7.584-2.663 1.183-1.296 9.69-9.967 12.978-13.169.845-.823 1.327-1.15 1.579-1.04.065.1.13.2.193.3.018.08.03.162.035.244Zm-1.543-2.382c-.177.13-.284.21-.282.21-.877.821-1.909 1.567-2.943 2.489-3.292 2.935-5.172 4.358-8.505 7.862-2.982 3.136-4.581 4.904-4.581 4.904s-2.656-.565-7.134-1.586l.015-.02-.663-.099c-.181-.028-.363-.057-.546-.08l-.636-.074c1.439-.666 3.24-1.6 5.49-2.938 4.035-2.4 11.48-8.92 10.196-14.23-1.825-7.549-19.975-2.142-26.566.022A25.01 25.01 0 0 1 92.474.512c8.026 0 15.166 3.769 19.766 9.63ZM82.262 25.435c.247-.06.63-.145 1.173-.308.763-.032 2.686.073 2.94.073 1.764 0 7.879 1.322 8.477 1.449-1.666 1.833-3.71 4.216-6.085 6.961-1.664-2.507-2.888-4.274-3.172-4.636-2.014-2.559-2.72-2.443-3.444-3.483.037-.02.076-.037.111-.056ZM70.095 37.038c3.295-11.059 5.301-13.517 6.618-16.002 4.432-8.364 5.657-7.812 6.808-8.378 1.727-.851 2.279-1.932 2.528-3.368.352-2.037-.596-2.226-1.499-2.596-.73-.298-2.085 1.587-3.31 3.338-1.58 2.257-2.098 1.844-9.615 16.05-.486.919-1.79 4.17-3.024 7.372a25.076 25.076 0 0 1-1.248-7.823A25.02 25.02 0 0 1 73.61 9.05c.414-.18.767-.328 1.026-.429 5.304-2.053 11.535-3.767 17.199-4.119 11.568-.72 7.133 7.469 1.492 12.793-2.211 2.088-4.84 4.488-9.159 5.91-.763.252-1.996.105-2.914.087-1.486-.032-3.314.042-4.414.83-.528.33-.888.811-.96 1.641 0 0-.336.578.196.597.037 0 .084.005.134.008.428.08.86.127 1.296.142.248.027.466.047.583.047l.324-.002a2.6 2.6 0 0 1 .315.052c1.08.257 2.007 1.176 3.713 3.36.566.723 2.293 3.238 4.253 6.034a362.216 362.216 0 0 1-8.977 9.958 25.22 25.22 0 0 1-7.623-8.92Zm22.379 13.714a24.997 24.997 0 0 1-12.42-3.29c1.793-1.931 4.625-5.073 8.223-9.22 5.287 8.153 10.122 10.489 12.02 11.26a25.086 25.086 0 0 1-7.823 1.25Zm25.12-25.12c0 10.206-6.09 18.98-14.826 22.912a12.12 12.12 0 0 1-1.991-1.05c-3.605-2.348-6.904-6.045-9.931-10.718-.19-.294-.378-.579-.56-.862a636.45 636.45 0 0 0 4.58-5.398c1.185-1.413 2.704-2.772 2.874-3.07 1.125.287 6.437 1.852 8.349 2.575-.658 1.859-2.316 5.76-3.364 9.553-.546 1.977-1.302 5.11-.974 5.88.412.96 2.298 2.16 2.867 1.696.449-2.172.973-7.066 1.318-8.71.627-2.99 1.444-5.181 2.373-7.572.783.348 2.898 1.22 3.983 1.657.207-.252.333-1.092.08-1.245-.605-.369-2.305-1.008-3.654-1.55.877-2.98 4.941-11.353 6.575-14.144l.116-.199a25.013 25.013 0 0 1 2.185 10.245Z"/>
  </g>
  <defs>
    <clipPath id="a">
      <path fill="#fff" d="M0 0h179.716v57.651H0z"/>
    </clipPath>
  </defs>
</svg>
